<svg fill="none" height="38" viewBox="0 0 128 38" width="128" xmlns="http://www.w3.org/2000/svg"><path clip-rule="evenodd" d="m19.845 38h-11.5618v-15.5742h5.3677v10.4287c0 .631.0533 1.1375.1688 1.5107.1111.3733.3244.6621.6443.8665.3155.2044.7643.3466 1.3419.4177.3244.04.711.0711 1.1553.0889.0933 0 3.0437 0 3.1593-1.1909.1155-1.213-.6177-1.7507-.6177-1.7507l.8754-.4576 1.1908 1.7951 2.4128 3.8613h-4.1413z" fill="#4e5a66" fill-rule="evenodd"/><path clip-rule="evenodd" d="m8.28188 16.2933v-2.6038c0-.9331-.08443-1.7152-.25328-2.3506-.28882-1.102-1.44855-2.52829-2.64383-2.57273v-.89312h8.26473v8.42025z" fill="#4e5a66" fill-rule="evenodd"/><path clip-rule="evenodd" d="m6.99839 17.9248h7.60271c.1999-.0089.3954-.0178.5998-.0311.5288-.0356.9776-.0756 1.3331-.1156.3599-.0355.7109-.1022 1.0531-.1688 4.0524-.8043 6.0786-3.2748 6.0786-7.4428 0-4.46559-3.7992-7.55821-7.505-7.89591h-4.079c-1.3997 0-5.86091.06665-6.7496.19995-.88868.1333-1.60851.37769-2.1595.73761-.55098.35992-.98644.86202-1.30636 1.50632-.31993.64429-.59987 1.49743-.82204 2.55497h-.910897l-.133303-7.26944h15.2587c4.8078 0 8.3581.830919 10.6509 2.4972 2.2928 1.66628 3.4392 4.24347 3.4392 7.7271 0 3.7858-1.4797 6.4918-4.4345 8.1226-.6799.3777-1.3819.6709-2.1018.8798-.7198.2088-1.684.4088-2.8971.5954l7.6471 11.4685.7821 1.2041c.942 1.3464 1.9417 2.3995 3.0037 3.1549 1.102.782 2.1551 1.173 3.1593 1.173v.8931h-8.7224l-11.5352-17.5559h-8.74905v17.5559h-5.367647v-19.7554z" fill="#12151e" fill-rule="evenodd"/><g fill="#000"><path d="m39.5818 20.5014v4.4523c0 .8576.0533 1.3997.16 1.6218.1066.2222.2888.3999.5554.5333.2666.1333.7598.1999 1.4886.1999v.4355h-8.1315v-.4355c.7332 0 1.2308-.0666 1.493-.2044.2621-.1377.4443-.3155.551-.5332.1066-.2177.1599-.7598.1599-1.6174v-10.3087c0-.8576-.0533-1.3997-.1599-1.6219-.1067-.2222-.2933-.3999-.5555-.5332-.2666-.1333-.7598-.2-1.4885-.2v-.4354h7.3805c1.9196 0 3.3281.1333 4.2168.3999s1.6174.7554 2.1773 1.4708.8442 1.5507.8442 2.5149c0 1.1731-.4221 2.1418-1.2663 2.906-.5377.4844-1.2931.8487-2.2617 1.0887l3.8213 5.3765c.4977.6932.8531 1.1286 1.0664 1.3019.32.24.6932.3733 1.1109.4v.4354h-5.0033l-5.1188-7.2383h-1.0442zm0-7.7893v6.9584h.6665c1.0842 0 1.8974-.0978 2.435-.2977.5377-.2.9642-.5599 1.2708-1.0798s.4622-1.1953.4622-2.0306c0-1.2086-.2844-2.1062-.8487-2.6839-.5643-.5776-1.4797-.8664-2.7372-.8664h-1.253z"/><path d="m55.6238 16.7918v8.6824c0 .7732.0889 1.2664.271 1.4841.1778.2133.5333.3377 1.0531.3688v.4221h-5.9186v-.4221c.4843-.0178.8442-.1555 1.0797-.4221.1556-.1777.2356-.6576.2356-1.4308v-6.3985c0-.7732-.0889-1.2664-.2711-1.4841-.1777-.2133-.5288-.3377-1.0442-.3688v-.4355h4.5945zm-1.6396-5.3055c.5065 0 .9375.1778 1.2886.5332.351.3555.5287.7821.5287 1.2842s-.1777.9242-.5332 1.2752c-.3555.3511-.782.5288-1.2841.5288s-.9243-.1777-1.2753-.5288c-.351-.351-.5288-.7776-.5288-1.2752 0-.4977.1778-.9287.5288-1.2842.351-.3554.7776-.5332 1.2753-.5332z"/><path d="m66.4736 24.9193.3644.2799c-.5155.9687-1.1598 1.6885-1.9285 2.1595s-1.5863.7109-2.4527.7109c-1.4619 0-2.6306-.5509-3.5015-1.6529-.8753-1.102-1.3108-2.4261-1.3108-3.9724s.3999-2.8038 1.1953-3.9369c.9598-1.3686 2.2839-2.0484 3.9724-2.0484 1.1331 0 2.0307.2844 2.7016.8531.6665.5688.9998 1.2086.9998 1.9107 0 .4443-.1333.7998-.4044 1.0664-.271.2666-.622.3999-1.0619.3999-.4621 0-.8398-.1511-1.142-.4577-.3021-.3065-.4843-.8486-.5554-1.6262-.0489-.4933-.16-.8354-.3377-1.0309-.1778-.1955-.391-.2933-.631-.2933-.3732 0-.6932.2-.9598.5954-.4043.5999-.6087 1.5241-.6087 2.7638 0 1.0309.1644 2.0174.4932 2.9594s.7776 1.644 1.3464 2.1017c.431.3377.9375.5021 1.5241.5021.3821 0 .7465-.0889 1.0886-.271.3421-.1778.7509-.5199 1.2175-1.0176z"/><path d="m71.6989 11.8556v6.3363c.5999-.631 1.1509-1.0798 1.653-1.3419.4977-.2622 1.0175-.391 1.5596-.391.6888 0 1.2753.1955 1.7641.5865.4887.391.8131.8487.9731 1.3774.1599.5288.2399 1.4175.2399 2.6661v4.2746c0 .8353.08 1.3552.2355 1.564.1555.2089.471.3377.9509.3911v.4221h-5.5543v-.4221c.3911-.0534.6843-.2089.8798-.4666.1422-.2044.2089-.6976.2089-1.4885v-4.8878c0-.9065-.0356-1.4752-.1067-1.7063-.0711-.231-.191-.4088-.3554-.5376-.1689-.1289-.3555-.1955-.5688-.1955-.311 0-.6176.1066-.9153.3199-.2978.2133-.6177.591-.9598 1.1286v5.8698c0 .782.0577 1.2708.1777 1.4663.1467.2666.4532.431.9154.4932v.4221h-5.5543v-.4221c.4621-.0489.7909-.1955.982-.4443.1333-.1733.1999-.6754.1999-1.5108v-11.1307c0-.8265-.0755-1.342-.2266-1.5464s-.471-.3377-.9553-.3999v-.4354h4.4612z"/><path d="m94.1857 22.1677-.5954 5.5765h-14.1079v-.4355h.5288c.4621 0 .8309-.08 1.1153-.2444.2044-.1111.3599-.2977.4665-.5643.0845-.1866.1289-.6798.1289-1.4752v-10.4509c0-.8132-.0444-1.3197-.1289-1.5241-.0844-.2044-.2621-.3822-.5198-.5332-.2622-.1511-.6132-.2267-1.062-.2267h-.5288v-.4354h8.4692v.4354h-.6888c-.4621 0-.8309.08-1.1152.2444-.2044.1111-.3644.2977-.4799.5643-.0845.1867-.1289.6799-.1289 1.4753v10.1221c0 .8131.0489 1.3286.1422 1.5507.0933.2222.2755.3866.551.4977.1955.0711.6665.1066 1.4174.1066h1.3242c.8442 0 1.5463-.1466 2.1106-.4443s1.0486-.7643 1.4574-1.4041c.4088-.6399.7998-1.5863 1.1642-2.8349z"/><path d="m99.1687 16.7918v8.6824c0 .7732.0889 1.2664.2711 1.4841.1821.2177.5332.3377 1.0532.3688v.4221h-5.9188v-.4221c.4844-.0178.8443-.1555 1.0798-.4221.1555-.1777.2355-.6576.2355-1.4308v-6.3985c0-.7732-.0889-1.2664-.2711-1.4841-.1777-.2133-.5287-.3377-1.0442-.3688v-.4355h4.5945zm-1.6396-5.3055c.5065 0 .9376.1778 1.2886.5332.351.3555.5288.7821.5288 1.2842s-.1778.9242-.5333 1.2752c-.3554.3511-.782.5288-1.2841.5288s-.9242-.1777-1.2753-.5288c-.351-.351-.5287-.7776-.5287-1.2752 0-.4977.1777-.9287.5287-1.2842.3511-.3554.7776-.5332 1.2753-.5332z"/><path d="m106.032 16.7917v1.4175c.564-.6088 1.102-1.0531 1.617-1.3286.516-.2755 1.071-.4177 1.662-.4177.711 0 1.302.1955 1.769.591.466.3954.782.8842.937 1.4707.125.4444.187 1.302.187 2.5639v4.2657c0 .8442.075 1.3685.227 1.5774.151.2088.471.3377.955.391v.4221h-5.541v-.4221c.413-.0533.711-.2266.889-.5154.124-.1955.186-.6799.186-1.453v-4.8745c0-.8975-.035-1.4663-.106-1.6973-.071-.2355-.191-.4177-.356-.5466-.169-.1288-.355-.1955-.555-.1955-.671 0-1.298.4799-1.875 1.4397v5.8697c0 .8221.075 1.3375.231 1.5597.151.2177.435.3554.848.4088v.4221h-5.541v-.4221c.463-.0489.791-.1955.982-.4444.134-.1733.2-.6798.2-1.5241v-6.1852c0-.8265-.075-1.3419-.226-1.5463s-.471-.3377-.956-.3999v-.4355h4.462z"/><path d="m118.876 11.8551v10.451l2.541-2.4973c.525-.5065.849-.8753.978-1.1019s.191-.4444.191-.6576c0-.2133-.084-.3866-.258-.5288-.173-.1422-.506-.24-1.008-.3066v-.4355h4.91v.4355c-.467.0222-.88.1333-1.231.3332-.351.2-1.04.7999-2.062 1.7996l-1.195 1.1731 2.577 3.7725c1.04 1.5329 1.657 2.3905 1.853 2.5771.266.2666.6.4133 1.009.4444v.4221h-5.657v-.4221c.249 0 .431-.0489.547-.1422.111-.0933.168-.1955.168-.3066 0-.1777-.164-.511-.493-.9953l-2.168-3.1771-.702.6932v1.9684c0 .8354.08 1.3553.235 1.5641.156.2089.476.3377.96.391v.4222h-5.661v-.4222c.462-.0488.791-.1955.982-.4443.133-.1733.2-.6754.2-1.5108v-11.1307c0-.8265-.075-1.3419-.227-1.5463-.151-.2044-.471-.3377-.955-.3999v-.4355h4.466z"/></g></svg>