<svg xmlns="http://www.w3.org/2000/svg" xmlns:xlink="http://www.w3.org/1999/xlink" width="201.411" height="56.066" viewBox="0 0 201.411 56.066"><defs><style>.a{fill:none;}.b{clip-path:url(#a);}.c{fill:#111;}</style><clipPath id="a"><rect class="a" width="201.411" height="56.066"/></clipPath></defs><g class="b"><path class="c" d="M199.949,92.424h-.3v1.2h.37a.916.916,0,0,0,.6-.159.55.55,0,0,0,.2-.436.561.561,0,0,0-.193-.432,1,1,0,0,0-.67-.172" transform="translate(-103.42 -47.877)"/><path class="c" d="M200.323,90a.572.572,0,0,0,.155-.435.546.546,0,0,0-.159-.425.666.666,0,0,0-.462-.145h-.211v1.153h.188a.691.691,0,0,0,.489-.147" transform="translate(-103.42 -46.101)"/><path class="c" d="M165.334,91.466h1.2l-.589-1.348Z" transform="translate(-85.646 -46.683)"/><path class="c" d="M246.554,91.466h1.2l-.588-1.348Z" transform="translate(-127.72 -46.683)"/><path class="c" d="M185.5,0H0V56.066H201.411V15.907A15.907,15.907,0,0,0,185.5,0M62.7,19.128h.013l5.913-5.912.763.763-5.607,5.606v7.441H80.558V28.1H63.786V34.01H95.612v-13.4H73.987V19.531h22.7l0,.079h.007V35.028h-.007V35.1H62.71v-.067H62.7Zm-27.015-6,15.876,9.166-.538.933L35.15,14.056ZM24.965,35.089H17.589V34.01h7.376Zm26.579,0H44.169V34.01h7.376Zm.028-6.989H35.094v6.917H34.016V28.1H17.605V27.017H34.013V20.609H24.1V19.531H35.095v7.49H51.572ZM62.939,44.6v1.713h-.6V44.6l-1.294-2.252h.688l.906,1.585.909-1.585h.688Zm6.944,1.187a2.1,2.1,0,0,1-2.861.067,2.048,2.048,0,0,1-.059-2.979,2.018,2.018,0,0,1,1.469-.6,2.073,2.073,0,0,1,2.062,2.062,1.95,1.95,0,0,1-.611,1.451m6.122.527h-.6V44.457H73.7v1.852h-.6V42.343h.6v1.551h1.711V42.343h.6Zm5.547,0-.416-.963h-1.7L79,46.309h-.645l1.962-4.214,1.893,4.214Zm5.151,0-1.428-1.765-.123.123v1.642h-.6V42.343h.6v1.582L86.7,42.343h.8l-1.792,1.8,1.8,2.17ZM92.826,44.9a1.429,1.429,0,0,1-.39,1.033,1.511,1.511,0,0,1-2.155,0,1.429,1.429,0,0,1-.39-1.033V42.343h.6v2.389a1.314,1.314,0,0,0,.167.747.892.892,0,0,0,1.4,0,1.286,1.286,0,0,0,.167-.747V42.343h.6Zm4.828,1.064a1.077,1.077,0,0,1-.444.275,2.583,2.583,0,0,1-.675.075h-.907V42.343h.6a2.62,2.62,0,0,1,.635.062.956.956,0,0,1,.4.208,1.067,1.067,0,0,1,.264.377,1.14,1.14,0,0,1,.1.462.938.938,0,0,1-.326.722.957.957,0,0,1,.5.377,1.118,1.118,0,0,1-.144,1.407m5.871-1.064a1.429,1.429,0,0,1-.391,1.033,1.468,1.468,0,0,1-2.545-1.033V42.343h.6v2.389a1.313,1.313,0,0,0,.167.747.893.893,0,0,0,1.4,0,1.3,1.3,0,0,0,.166-.747V42.343h.6Zm6.291,1.654-2.892-3.017v2.776h-.6V42.074l2.892,3.025V42.343h.6Zm4.951-.241-1.428-1.765-.123.123v1.642h-.6V42.343h.6v1.582l1.544-1.582h.8l-1.792,1.8,1.8,2.17Zm5.932,0-.416-.963h-1.7l-.442.963H117.5l1.962-4.214,1.893,4.214Zm3.031.924-.391-.162.609-1.505.514.2Zm4.044-.924h-.6V42.343h.6Zm4.849,0h-.58v-1.4a.915.915,0,0,0-.1-.511.414.414,0,0,0-.364-.144.446.446,0,0,0-.409.19,1.311,1.311,0,0,0-.118.655v1.207h-.58v-2.5h.58v.231a.946.946,0,0,1,.683-.3.86.86,0,0,1,.681.275,1.122,1.122,0,0,1,.211.762Zm4.527-1.626a1.408,1.408,0,0,0-.354-.332.689.689,0,0,0-.362-.092.715.715,0,0,0-.542.228.8.8,0,0,0-.216.573.822.822,0,0,0,.208.578.7.7,0,0,0,.537.226.73.73,0,0,0,.367-.091,1.435,1.435,0,0,0,.362-.339V46.2a1.516,1.516,0,0,1-.7.182,1.347,1.347,0,0,1-.97-.374,1.252,1.252,0,0,1-.39-.937,1.27,1.27,0,0,1,.4-.945,1.335,1.335,0,0,1,.971-.385,1.454,1.454,0,0,1,.7.177Zm1.57-9.6H125.511l-3.768-3.769-3.77,3.77H104.765V34.009h12.759l3.455-3.455-6.472-6.47.762-.763,6.471,6.471,6.471-6.471.763.763-6.47,6.47,3.454,3.454h12.76Zm.016-14.472H126.651l-6.641-6.641.763-.763,6.324,6.326h11.638Zm1.524,25.665a.34.34,0,0,1-.252.1.343.343,0,0,1-.254-.1.349.349,0,0,1-.1-.257.357.357,0,1,1,.608.257m10.664-26.7V35.023h-1.078v-15.9h.014l5.913-5.912.758.765Zm32.9,15.506H160.642v-.067h-.055V19.531h17.527v1.078h-16.45v13.4h22.157Z"/><path class="c" d="M140.383,88.866a1.415,1.415,0,0,0-1.045.431,1.488,1.488,0,1,0,2.083,2.126,1.538,1.538,0,0,0,.005-2.126,1.4,1.4,0,0,0-1.043-.431" transform="translate(-71.959 -46.034)"/></g></svg>