<?xml version="1.0" encoding="utf-8"?>
<!-- Generator: Adobe Illustrator 19.0.0, SVG Export Plug-In . SVG Version: 6.00 Build 0)  -->
<svg version="1.1" id="グループ_50" xmlns="http://www.w3.org/2000/svg" width="227" height="55"  xmlns:xlink="http://www.w3.org/1999/xlink" x="0px"
	 y="0px" viewBox="-307 270.3 227 55" style="enable-background:new -307 270.3 227 55;" xml:space="preserve">
<style type="text/css">
	.st0{fill:#092A78;}
</style>
<path class="st0" d="M-203.7,314.4v-0.6h-1.6v11.1h1.6v-7.5c0-1.2,0.9-2.1,2.1-2.1c0.7,0,1.2,0.3,1.6,0.8l1.2-1.2
	c-0.7-0.8-1.7-1.3-2.8-1.3C-202.4,313.8-203.1,314-203.7,314.4"/>
<path class="st0" d="M-151.2,313.6c-3.2,0-5.8,2.6-5.8,5.8c0,3.2,2.6,5.8,5.8,5.8s5.8-2.6,5.8-5.8S-148,313.6-151.2,313.6
	 M-151.2,323.5c-2.3,0-4.1-1.9-4.1-4.1c0-2.3,1.9-4.1,4.1-4.1c2.3,0,4.1,1.9,4.1,4.1C-147,321.6-148.9,323.5-151.2,323.5"/>
<path class="st0" d="M-173.4,323.5c-2.3,0-4.1-1.9-4.1-4.1c0-2.3,1.9-4.1,4.1-4.1c1.4,0,2.6,0.7,3.4,1.7l1.1-1.2
	c-1.1-1.3-2.7-2.2-4.5-2.2c-3.2,0-5.8,2.6-5.8,5.8c0,3.2,2.6,5.8,5.8,5.8c1.9,0,3.7-1,4.7-2.4l-1.2-1.2
	C-170.6,322.7-171.9,323.5-173.4,323.5"/>
<rect x="-163.8" y="313.8" class="st0" width="1.6" height="11.1"/>
<path class="st0" d="M-163,309c-0.6,0-1.1,0.5-1.1,1.1s0.5,1.1,1.1,1.1s1.1-0.5,1.1-1.1C-161.8,309.5-162.2,309-163,309"/>
<path class="st0" d="M-134,320.9c0,1.5-1.2,2.6-2.6,2.6c-1.5,0-2.6-1.2-2.6-2.6v-7.1h-1.6v7.1c0,2.4,1.9,4.3,4.3,4.3
	s4.3-1.9,4.3-4.3v-7.1h-1.6v7.1H-134z"/>
<path class="st0" d="M-123.8,318.1l-0.2-0.1c-1.4-0.5-1.8-0.8-1.9-1.5c0-0.2,0.1-0.5,0.4-0.8s0.7-0.5,1.3-0.5c1,0,1.3,0.8,1.4,0.9
	l0.8-0.3l0.8-0.3c-0.3-0.7-1.2-2-2.9-2c-1.2,0-2,0.5-2.4,1c-0.5,0.6-0.9,1.3-0.8,2c0.1,1.9,1.6,2.5,2.9,3l0.2,0.1
	c1.7,0.6,2.3,1.1,2.2,2.3c-0.1,0.4-0.3,0.8-0.7,1.1c-0.5,0.4-1.1,0.5-1.8,0.4c-1.3-0.2-1.8-1.1-2-1.5l-1.5,0.7
	c0.6,1.2,1.8,2.1,3.2,2.4c0.2,0,0.5,0.1,0.7,0.1c0.8,0,1.7-0.3,2.3-0.7c0.8-0.6,1.2-1.4,1.4-2.2
	C-120.2,319.5-122.5,318.6-123.8,318.1"/>
<path class="st0" d="M-214.2,311.9c0-1.5,1.2-2.6,2.6-2.6v-1.6c-2.4,0-4.3,1.9-4.3,4.3v3.4h-1.4v1.6h1.4v7.9h1.6V317h2.7v-1.6h-2.7
	L-214.2,311.9L-214.2,311.9z"/>
<path class="st0" d="M-183.7,319.6L-183.7,319.6c0-3.5-2.4-6-5.8-6c-3.2,0-5.8,2.6-5.8,5.8c0,3.2,2.6,5.8,5.9,5.8l0,0
	c2,0,3.9-1,4.9-2.6l-1.2-1.2c-0.8,1.3-2.1,2.2-3.7,2.2l0,0c-2.2,0-4-1.7-4.2-3.9L-183.7,319.6L-183.7,319.6z M-193.4,318
	c0.6-1.6,2.1-2.8,3.9-2.8c2,0,3.4,1.1,3.9,2.8H-193.4z"/>
<path class="st0" d="M-237.2,270.4c-7.2,0-13,5.8-13,13s5.9,13,13.1,13l0,0c5.3,0,9.9-3.1,12.1-7.6h-3.7c-1.8,2.6-4.9,4.4-8.3,4.4
	l0,0c-4.9,0-9-3.5-9.7-8.1h22.6v-1.6C-224.2,276.2-230.1,270.4-237.2,270.4 M-246.8,281.8c0.8-4.6,4.8-8.1,9.6-8.1s8.8,3.5,9.6,8.1
	H-246.8z"/>
<path class="st0" d="M-166.8,270.4c-7.2,0-13,5.8-13,13s5.9,13,13.1,13l0,0c5.3,0,9.9-3.1,12.1-7.6h-3.7c-1.8,2.6-4.9,4.4-8.3,4.4
	l0,0c-4.9,0-9-3.5-9.7-8.1h22.6v-1.6C-153.8,276.2-159.7,270.4-166.8,270.4 M-176.4,281.8c0.8-4.6,4.8-8.1,9.6-8.1s8.8,3.5,9.6,8.1
	H-176.4z"/>
<polygon class="st0" points="-201.9,290.2 -209.9,270.6 -213.4,270.6 -203,296.1 -200.7,296.1 -190.6,270.6 -194.1,270.6 "/>
<path class="st0" d="M-133.7,272.5v-1.9h-3.2v25.5h3.2V279c0-2.8,2.3-5.1,5.1-5.1c1.6,0,3,0.8,4,2l2.3-2.3c-1.5-1.7-3.7-2.9-6.2-2.9
	C-130.5,270.7-132.2,271.4-133.7,272.5"/>
<polygon class="st0" points="-87.4,270.6 -96.4,289.2 -106.4,270.6 -110.1,270.6 -98.1,292.8 -102.9,302.6 -99.9,304 -83.8,270.6 
	"/>
<path class="st0" d="M-282.6,270.4c-11.1,0-11.1,12.2-11.1,16.2v13.8l-1.8,9.3h8.6l-1.8-9.3v-13.8c0-10.2,3.1-11.1,6-11.1
	c2.1,0,3.5,1,4.6,3.2l4.6-2.2C-276,271.5-279.9,270.4-282.6,270.4"/>
<polygon class="st0" points="-294.8,324.9 -287.8,324.9 -287,317.5 -295.6,317.5 "/>
<polygon class="st0" points="-299.6,303.2 -303.2,303.2 -303.2,311.1 -303.2,311.1 -303.2,312 -299.1,316.2 -284.1,316.2 
	-284.1,311.1 -299.6,311.1 "/>
</svg>
