<svg xmlns="http://www.w3.org/2000/svg" xmlns:xlink="http://www.w3.org/1999/xlink" width="193.979" height="22.473" viewBox="0 0 193.979 22.473">
  <defs>
    <linearGradient id="linear-gradient" y1="0.5" x2="1" y2="0.5" gradientUnits="objectBoundingBox">
      <stop offset="0" stop-color="#f0575b"/>
      <stop offset="1" stop-color="#ff9537"/>
    </linearGradient>
  </defs>
  <g id="グループ_323" data-name="グループ 323" transform="translate(-319.565 -487.23)">
    <g id="グループ_319" data-name="グループ 319" transform="translate(319.565 487.23)">
      <path id="パス_371" data-name="パス 371" d="M344.154,522.855a.878.878,0,0,0-.878.878v2.626a2.358,2.358,0,0,1-2.355,2.355c-1.176,0-2.33-.894-2.33-1.805v-3.176a.878.878,0,0,0-.878-.878H332.3a.878.878,0,0,0-.878.878v3.176c0,.911-1.154,1.805-2.33,1.805a2.358,2.358,0,0,1-2.356-2.355v-2.626a.878.878,0,0,0-.878-.878h-5.414a.878.878,0,0,0-.878.878v2.408a9.567,9.567,0,0,0,15.44,7.731,9.567,9.567,0,0,0,15.441-7.731v-2.409a.878.878,0,0,0-.878-.878Z" transform="translate(-319.565 -513.411)" fill="url(#linear-gradient)"/>
      <circle id="楕円形_5" data-name="楕円形 5" cx="3.935" cy="3.935" r="3.935" transform="translate(23.254 0)" fill="#f0575b"/>
      <circle id="楕円形_6" data-name="楕円形 6" cx="3.935" cy="3.935" r="3.935" transform="translate(11.505 0)" fill="#f0575b"/>
    </g>
    <g id="グループ_320" data-name="グループ 320" transform="translate(358.717 487.726)">
      <path id="パス_372" data-name="パス 372" d="M482.109,496.883a9.521,9.521,0,0,0-5.5,2.029,20.329,20.329,0,0,0-2.113,1.69v-.637l1.973-2.259a.426.426,0,0,0,.027-.529,1.2,1.2,0,0,0-.09-.111l-.861-1.089a.185.185,0,0,0-.25-.038,2.058,2.058,0,0,1-.726.351c.021-1.155.046-1.7.126-3.166.015-.172.024-.425.024-.633,0-.19-.035-.3-.6-.3l-2.044-.072a.178.178,0,0,0-.146.057.184.184,0,0,0-.051.147c.034.316.09,1.125.09,2.994l-.02,1.407c-.907.125-2.292.229-3.929.293a.184.184,0,0,0-.136.068.187.187,0,0,0-.04.147l.408,2.494a.186.186,0,0,0,.23.15c.992-.26,1.506-.387,2.12-.5.9-.173,1.17-.226,1.344-.257v1.134c-.021.554-.022.742-.022,1.318a48.9,48.9,0,0,1-4.629,6.463.187.187,0,0,0-.005.231l1.519,2a.185.185,0,0,0,.147.073h0a.184.184,0,0,0,.148-.076,48.764,48.764,0,0,0,2.766-4.093c-.025,2.167-.075,3.6-.2,5.924a.185.185,0,0,0,.185.195h.005l2.54-.068a.185.185,0,0,0,.18-.189l-.052-2.117c-.068-2.719-.084-3.365-.084-4.905l.021-1.444.4-.375a18.8,18.8,0,0,1,3.642-2.788,5.777,5.777,0,0,1,3.328-1.084c2.327,0,3.716,1.525,3.716,4.078a5.111,5.111,0,0,1-2.777,4.71,14.9,14.9,0,0,1-4.039,1.278.185.185,0,0,0-.131.108.189.189,0,0,0,.013.17,6.7,6.7,0,0,1,.838,2.21.189.189,0,0,0,.081.116.184.184,0,0,0,.14.025,13.894,13.894,0,0,0,4.84-1.792,7.534,7.534,0,0,0,3.785-6.825C488.3,499.56,485.757,496.883,482.109,496.883Z" transform="translate(-467.252 -491.32)" fill="#f0575b"/>
      <path id="パス_373" data-name="パス 373" d="M567.9,495.7l-.295-2.223a.185.185,0,0,0-.224-.156,21.065,21.065,0,0,1-3.882.594c.351-1.773.51-2.623.51-2.623s.109-.517.161-.891c.056-.4-2.543-.574-2.543-.574a.185.185,0,0,0-.145.034.181.181,0,0,0-.073.131c-.023.246-.023.246-.067.586-.135,1.2-.135,1.2-.248,1.825-.183,1.029-.252,1.415-.283,1.575-.643.019-1.067.019-1.235.019a22.731,22.731,0,0,1-2.455-.113.179.179,0,0,0-.14.047.183.183,0,0,0-.062.134l-.046,2.2a.185.185,0,0,0,.165.188,23.163,23.163,0,0,0,2.356.137h0c.2,0,.262,0,.922-.016a66.533,66.533,0,0,1-3.768,12.432.185.185,0,0,0,.128.257,6.693,6.693,0,0,1,2.3.929.181.181,0,0,0,.1.028.179.179,0,0,0,.059-.01.185.185,0,0,0,.114-.109,103.119,103.119,0,0,0,3.722-13.585,32.7,32.7,0,0,0,4.782-.609A.186.186,0,0,0,567.9,495.7Z" transform="translate(-532.864 -489.633)" fill="#f0575b"/>
      <path id="パス_374" data-name="パス 374" d="M589.739,520.467a.187.187,0,0,0-.008.144l.771,2.154a.184.184,0,0,0,.1.105.182.182,0,0,0,.079.018.189.189,0,0,0,.063-.011,14.4,14.4,0,0,1,5.425-.964,24.218,24.218,0,0,1,2.882.2.187.187,0,0,0,.2-.153l.385-2.245a.185.185,0,0,0-.032-.14.187.187,0,0,0-.122-.074,18.424,18.424,0,0,0-3.2-.251,18.652,18.652,0,0,0-6.429,1.12A.184.184,0,0,0,589.739,520.467Z" transform="translate(-557.255 -511.259)" fill="#f0575b"/>
      <path id="パス_375" data-name="パス 375" d="M595.866,547.381a33.122,33.122,0,0,1-4.83.316c-2.154,0-3.494-.312-3.983-.928a2.465,2.465,0,0,1-.39-1.462l.023-.454a.186.186,0,0,0-.185-.194h-2.132a.185.185,0,0,0-.185.18l-.022.754a4.232,4.232,0,0,0,1.407,3.592c1.05.839,2.692,1.151,6.057,1.151a33.669,33.669,0,0,0,3.919-.2.186.186,0,0,0,.167-.177,8.238,8.238,0,0,1,.356-2.34.185.185,0,0,0-.039-.17A.187.187,0,0,0,595.866,547.381Z" transform="translate(-553.169 -529.93)" fill="#f0575b"/>
      <path id="パス_376" data-name="パス 376" d="M657.65,505.545a.186.186,0,0,0-.3.044c-1.148,2.341-1.973,3.34-3.534,4.277a7.246,7.246,0,0,1-3.693,1.063c-1.469,0-2.347-.45-2.682-1.372a9.075,9.075,0,0,1-.33-3.273c0-.725.023-1.868.068-3.3.058-1.828.109-7.714.118-8.727a.148.148,0,0,0-.149-.149h-2.5a.183.183,0,0,0-.139.052.185.185,0,0,0-.056.136l.019,1.172c.015.873.026,1.564.026,2.566,0,1.521-.024,2.317-.113,5.278-.044,1.419-.068,2.8-.068,4,0,2.709.505,4.241,1.742,5.287a5.541,5.541,0,0,0,3.818,1.134,10.273,10.273,0,0,0,6.968-2.47,12.527,12.527,0,0,0,2.828-3.56.189.189,0,0,0-.037-.237A23.611,23.611,0,0,1,657.65,505.545Z" transform="translate(-597.374 -492.776)" fill="#f0575b"/>
      <path id="パス_377" data-name="パス 377" d="M729.707,501.47a11.21,11.21,0,0,0-6.434-1.893,10.557,10.557,0,0,0-7.547,3.026,9.634,9.634,0,0,0-2.911,6.865c0,3.407,1.7,5.787,4.132,5.787,1.839,0,3.282-1.362,4.681-4.417.833-1.824,2.54-8.557,2.6-8.8,4.374.566,5.755,3.127,5.755,5.771a5.221,5.221,0,0,1-2.409,4.606,13.439,13.439,0,0,1-3.963,1.611.184.184,0,0,0-.1.284,7.49,7.49,0,0,1,1.089,2.2.185.185,0,0,0,.174.123.18.18,0,0,0,.06-.01,14.688,14.688,0,0,0,4.811-2.271,7.441,7.441,0,0,0,3.16-6.431A7.551,7.551,0,0,0,729.707,501.47Zm-8.27.645a50.439,50.439,0,0,1-2.052,7.073c-1,2.245-1.839,3.383-2.484,3.383-.8,0-1.448-1.382-1.448-3.08A7.884,7.884,0,0,1,721.437,502.116Z" transform="translate(-647.717 -496.8)" fill="#f0575b"/>
      <path id="パス_378" data-name="パス 378" d="M852.419,499.945a.185.185,0,0,0-.234.036l-1.429,1.61a.185.185,0,0,0,.035.276,19.907,19.907,0,0,1,4.426,4.2.183.183,0,0,0,.129.069h.015a.187.187,0,0,0,.124-.048l1.746-1.587a.185.185,0,0,0,.016-.258A18.554,18.554,0,0,0,852.419,499.945Z" transform="translate(-749.055 -497.05)" fill="#f0575b"/>
      <path id="パス_379" data-name="パス 379" d="M811.739,500.757a15.792,15.792,0,0,0-3.448.43l-.059-2.679c.306-.061.345-.069.659-.128,1.43-.25,1.43-.25,1.8-.318.681-.136.851-.178,2.03-.5a.187.187,0,0,0,.136-.2l-.272-2.132a.187.187,0,0,0-.083-.131.185.185,0,0,0-.154-.022,29.026,29.026,0,0,1-3.016.7l-1.1.188c0-.131-.007-.276-.011-.413-.005-.183-.01-.351-.01-.454l0-2.521a.183.183,0,0,0-.183-.182h-2.371a.178.178,0,0,0-.142.058.184.184,0,0,0-.05.144c.066.723.136,2.21.136,3.271v.258c-.612.039-.925.056-1.266.056-.666,0-1.73-.044-2.778-.113a.2.2,0,0,0-.139.05.184.184,0,0,0-.058.135v2.245a.187.187,0,0,0,.18.185c.592.023,1.025.023,1.321.023.459,0,1.9-.02,2.792-.041.01.342.02.775.033,1.3q.019.822.049,1.949a10.809,10.809,0,0,0-2.369,1.263,6.161,6.161,0,0,0-2.8,4.935c0,2.388,1.544,3.813,4.131,3.813,1.73,0,2.7-.507,3.229-1.693.389-.828.426-1.793.426-5.93v-.708a8.926,8.926,0,0,1,3.035-.491c2.722,0,4.283,1.131,4.283,3.1,0,1.893-1.339,2.75-4.776,3.058a.187.187,0,0,0-.147.1.184.184,0,0,0,0,.177,8.367,8.367,0,0,1,.843,2.29.184.184,0,0,0,.179.14l.028,0a14.524,14.524,0,0,0,2.475-.55c2.742-.844,4.19-2.63,4.19-5.166C818.454,502.913,815.819,500.757,811.739,500.757Zm-6,3.791-.016.907c0,1.377,0,2.372-.023,2.6-.07,1.158-.458,1.391-1.062,1.391-.846,0-1.312-.53-1.312-1.493C803.329,506.582,804.1,505.5,805.742,504.548Z" transform="translate(-712.197 -491.517)" fill="#f0575b"/>
      <path id="パス_380" data-name="パス 380" d="M882.284,501.7a.185.185,0,0,0-.023.3,4.575,4.575,0,0,1,1.176,1.658.186.186,0,0,0,.272.08,30.116,30.116,0,0,0,4.3-3.393h1.706a13.8,13.8,0,0,1-1.384,1.213l-.958.048a.17.17,0,0,0-.161.17l.01,1.836a38.011,38.011,0,0,1-4.8.784.184.184,0,0,0-.157.236l.572,1.888a.27.27,0,0,0,.3.189l4.109-.7v1.154c0,.767,0,.767-.972.767a13.47,13.47,0,0,1-1.433-.09.176.176,0,0,0-.164.069.186.186,0,0,0-.029.175,8.174,8.174,0,0,1,.42,2.286.186.186,0,0,0,.185.175h.159c3.322,0,4.357-.307,4.357-2.226v-.305c-.044-.775-.068-2-.068-2.416v-.1a39.206,39.206,0,0,0,4.632-1.174.184.184,0,0,0,.129-.189l-.113-1.644a.2.2,0,0,0,.054,0,.184.184,0,0,0,.143-.084c.359-.557.692-1.118,1-1.675a20.04,20.04,0,0,0,1.281,3.878l-.018.021c-.036.041-.074.086-.123.134-1.438,1.55-3.119,2.474-6.429,3.533a.185.185,0,0,0-.089.291,6.073,6.073,0,0,1,.99,1.958.183.183,0,0,0,.093.111.179.179,0,0,0,.084.02.191.191,0,0,0,.061-.01,22.2,22.2,0,0,0,3.883-1.645,13.261,13.261,0,0,0,2.979-2.2,22.644,22.644,0,0,0,3.894,3.631.185.185,0,0,0,.276-.056,6.068,6.068,0,0,1,1.517-1.758.184.184,0,0,0-.014-.3,14.945,14.945,0,0,1-4.093-3.5,11.263,11.263,0,0,0,1.2-2.541,23.812,23.812,0,0,0,1.147-5.747l1.328.022a.184.184,0,0,0,.188-.185v-2.132a.185.185,0,0,0-.2-.185c-.334.023-.9.023-1.348.023H897.9s.473-3.544.569-4.425a.266.266,0,0,0-.243-.293l-1.83-.152a.185.185,0,0,0-.226.163,34.926,34.926,0,0,1-1.015,5.933c-.115.421-.234.814-.362,1.193v-1.349a.186.186,0,0,0-.059-.135.183.183,0,0,0-.139-.049c-.54.039-1.329.044-1.945.045.677-.983,2.108-3.722,2.521-4.521a.228.228,0,0,0-.118-.316l-1.941-.8a.185.185,0,0,0-.238.093l-.119.254c-.332.713-.673,1.445-1.048,2.148v-.261a.184.184,0,0,0-.058-.135.189.189,0,0,0-.139-.05c-.335.023-2.3.023-2.3.023V489.51a.2.2,0,0,0-.2-.2l-2.092-.013a.243.243,0,0,0-.2.242l-.006,1.933h-1.33c-.428,0-1.014,0-1.325-.022a.183.183,0,0,0-.139.049.186.186,0,0,0-.059.135v1.973a.186.186,0,0,0,.059.136.179.179,0,0,0,.139.049c.309-.022.889-.045,1.325-.045h1.33v1.286h-1.947c-.638,0-1.6,0-2.232-.045a.186.186,0,0,0-.2.185v2.018a.186.186,0,0,0,.059.135.176.176,0,0,0,.139.049c.629-.045,1.594-.045,2.232-.045h2.886A22.978,22.978,0,0,1,882.284,501.7Zm17.7-5.146a19.972,19.972,0,0,1-1.555,5.624,24.477,24.477,0,0,1-1.253-5.276c.02-.073.043-.143.067-.213.015-.044.03-.089.043-.134Zm-9.38-2.808c-.312.471-.62.892-.938,1.281h-.453v-1.286S890.463,493.746,890.6,493.751Zm2.458,5.507-.8-1.016a.339.339,0,0,0-.268-.13l-1.818,0,.121-.137c.2-.221.388-.436.563-.65,0,0,3.054-.035,3.668-.023a10.445,10.445,0,0,1-1.815,3.421.188.188,0,0,0,.042.268,4.88,4.88,0,0,1,1.176,1.056c-1.3.383-2.677.736-4.2,1.077v-.044l.247-.2c.387-.313.788-.638,1.167-1a11.536,11.536,0,0,0,1.933-2.332A.261.261,0,0,0,893.061,499.258Z" transform="translate(-772.197 -489.193)" fill="#f0575b"/>
      <path id="パス_381" data-name="パス 381" d="M974.765,494.8a.185.185,0,0,0,.184.2h2.359a.186.186,0,0,0,.185-.2c-.024-.4-.068-1.024-.068-1.221l14.438-.019v.019c0,.2-.044.821-.068,1.221a.186.186,0,0,0,.185.2h2.358a.185.185,0,0,0,.184-.2c-.044-.459-.068-.952-.068-1.214v-.612c0-.484,0-.9.046-1.714a.185.185,0,0,0-.2-.195c-1.363.079-3.4.091-4.5.091h-3.874l.011-1.819a.232.232,0,0,0-.232-.233h-2.142a.232.232,0,0,0-.232.232l0,1.82h-3.852c-1.1,0-3.139-.012-4.5-.091a.192.192,0,0,0-.142.054.186.186,0,0,0-.054.141c.046.812.046,1.23.046,1.714v.612C974.832,493.846,974.808,494.342,974.765,494.8Z" transform="translate(-840.224 -489.1)" fill="#f0575b"/>
      <path id="パス_382" data-name="パス 382" d="M993.592,525.059a.178.178,0,0,0-.135-.052c-1.143.045-2.793.091-4.241.091h-4.69v-1.149h3.488c.872,0,2.066.024,2.882.045a.2.2,0,0,0,.134-.052.187.187,0,0,0,.056-.133v-2.2a.185.185,0,0,0-.058-.135.179.179,0,0,0-.138-.05c-.722.042-1.9.068-2.876.068h-3.488c0-.187.008-.993.013-1.279,0-.16-.031-.273-.362-.4l-.377-.146,5.18-.569a17.944,17.944,0,0,1,1.734,1.2.2.2,0,0,0,.138.045.186.186,0,0,0,.128-.069l1.375-1.6a.181.181,0,0,0,.039-.137.176.176,0,0,0-.069-.124,45.008,45.008,0,0,0-4.8-3.025h.485c.986,0,2.132.031,3.161.054l.63.014h0a.185.185,0,0,0,.185-.185v-2.177a.187.187,0,0,0-.057-.134.218.218,0,0,0-.136-.051c-1,.045-2.526.091-3.786.091H978.58c-1.128,0-2.832-.044-3.785-.091a.171.171,0,0,0-.137.051.187.187,0,0,0-.057.134v2.177a.2.2,0,0,0,.067.132.227.227,0,0,0,.145.052c.952-.022,2.667-.067,3.768-.067h1.093c-.359.755-.753,1.5-1.177,2.218-.455.009-.929.021-1.428.034-.766.02-1.588.041-2.482.055a.184.184,0,0,0-.146.075.187.187,0,0,0-.029.162l.309,1.764a.389.389,0,0,0,.383.28c.808-.02,6.691-.152,6.691-.152l.166.148c.017.561.018.868.018,1.51h-3.512c-.922,0-1.985-.021-2.878-.068a.185.185,0,0,0-.194.185v2.2a.185.185,0,0,0,.189.185c.44-.011,1.7-.045,2.883-.045h3.512V525.1h-4.691c-1.334,0-3.112-.047-4.241-.091a.169.169,0,0,0-.135.052.183.183,0,0,0-.057.133v2.268a.185.185,0,0,0,.185.185h.007c1.181-.043,2.974-.09,4.241-.09h11.928c1.376,0,3.043.046,4.241.09a.153.153,0,0,0,.136-.051.186.186,0,0,0,.056-.133v-2.268A.184.184,0,0,0,993.592,525.059Zm-8.671-8.507a.182.182,0,0,0-.033.159.185.185,0,0,0,.1.124c.349.154.64.285.9.4-1.871.146-3.392.24-4.815.295.306-.45.635-.956,1.317-2.112l.014-.022h3.412Z" transform="translate(-838.821 -506.606)" fill="#f0575b"/>
    </g>
  </g>
</svg>
