<svg xmlns="http://www.w3.org/2000/svg" width="320" height="63.139" viewBox="0 0 320 63.139">
  <g id="グループ_668" data-name="グループ 668" transform="translate(-143.152 -234.765)">
    <g id="グループ_50" data-name="グループ 50" transform="translate(258.424 261.245)">
      <path id="パス_155" data-name="パス 155" d="M374.767,297.742a10.341,10.341,0,0,0-7.472-.192,10.713,10.713,0,0,0-5.182,3.921,9.794,9.794,0,0,0-3.078-3.066,9.539,9.539,0,0,0-5.114-1.464,9.213,9.213,0,0,0-7.125,2.926v-2.515h-5.219V324.4H346.8V308.361a6.32,6.32,0,0,1,1.848-4.854,6.007,6.007,0,0,1,4.4-1.707,5.238,5.238,0,0,1,4.059,1.718,6.953,6.953,0,0,1,1.629,4.791v16.1h5.218V308.361a6.316,6.316,0,0,1,1.848-4.854,6.009,6.009,0,0,1,4.4-1.707,5.238,5.238,0,0,1,4.058,1.718,6.953,6.953,0,0,1,1.629,4.791v16.1h5.219v-16.2a11.575,11.575,0,0,0-3.068-8.18A10.139,10.139,0,0,0,374.767,297.742Z" transform="translate(-341.576 -288.156)" fill="#302d2c"/>
      <path id="パス_156" data-name="パス 156" d="M437.618,300.268a10.935,10.935,0,0,0-8.258-3.327,12.649,12.649,0,0,0-9.807,4.082,15.409,15.409,0,0,0,0,19.715,12.351,12.351,0,0,0,9.548,4.077,11.346,11.346,0,0,0,8.513-3.284V324.4h5.218V297.352h-5.218Zm-8,19.2a8.022,8.022,0,0,1-6.168-2.505,9.378,9.378,0,0,1,0-12.169,8.024,8.024,0,0,1,6.169-2.507,7.616,7.616,0,0,1,6.056,2.495,9.719,9.719,0,0,1,0,12.2A7.612,7.612,0,0,1,429.618,319.469Z" transform="translate(-372.719 -288.156)" fill="#302d2c"/>
      <path id="パス_157" data-name="パス 157" d="M488.458,297.707a12.9,12.9,0,0,0-4.665-.766,8.994,8.994,0,0,0-4.94,1.393,13.844,13.844,0,0,0-2.339,1.879v-2.861h-5.219V324.4h5.219V308.926a6.837,6.837,0,0,1,2.049-5.157,6.943,6.943,0,0,1,5.025-1.969,6.132,6.132,0,0,1,4.694,1.894,7.149,7.149,0,0,1,1.815,5.182V324.4h5.219V308.772a11.786,11.786,0,0,0-3.377-8.745A9.667,9.667,0,0,0,488.458,297.707Z" transform="translate(-395.866 -288.156)" fill="#302d2c"/>
      <path id="パス_158" data-name="パス 158" d="M540.339,300.268a10.935,10.935,0,0,0-8.257-3.327,12.649,12.649,0,0,0-9.808,4.082,15.411,15.411,0,0,0,0,19.715,12.351,12.351,0,0,0,9.548,4.077,11.346,11.346,0,0,0,8.513-3.284V324.4h5.218V297.352h-5.218Zm-8,19.2a8.022,8.022,0,0,1-6.168-2.505,9.378,9.378,0,0,1,0-12.169,8.024,8.024,0,0,1,6.17-2.507,7.616,7.616,0,0,1,6.055,2.495,9.718,9.718,0,0,1,0,12.2A7.612,7.612,0,0,1,532.339,319.469Z" transform="translate(-415.711 -288.156)" fill="#302d2c"/>
      <path id="パス_159" data-name="パス 159" d="M580.62,281.833H575.4v9.2h-4.147v4.756H575.4v22.3h5.219v-22.3h4.147v-4.756H580.62Z" transform="translate(-437.701 -281.833)" fill="#302d2c"/>
      <path id="パス_160" data-name="パス 160" d="M610.112,296.941a12.915,12.915,0,0,0-9.853,4.075,14.092,14.092,0,0,0-3.57,9.863,13.864,13.864,0,0,0,3.731,9.871,13.14,13.14,0,0,0,9.95,4.066,12.917,12.917,0,0,0,7.881-2.292,13.119,13.119,0,0,0,4.469-5.954l.354-.927h-5.617l-.192.366a7.081,7.081,0,0,1-6.845,3.948,7.965,7.965,0,0,1-5.8-2.172,8.551,8.551,0,0,1-2.5-4.682h21.414v-2.224a14.094,14.094,0,0,0-3.574-9.867A12.913,12.913,0,0,0,610.112,296.941Zm0,4.859a7.774,7.774,0,0,1,5.494,2.026,8.289,8.289,0,0,1,2.417,4.315H602.2a8.27,8.27,0,0,1,2.411-4.311A7.775,7.775,0,0,1,610.112,301.8Z" transform="translate(-448.346 -288.156)" fill="#302d2c"/>
      <path id="パス_161" data-name="パス 161" d="M669.118,297.352v2.916a10.935,10.935,0,0,0-8.258-3.327,12.649,12.649,0,0,0-9.807,4.082,15.409,15.409,0,0,0,0,19.715,12.351,12.351,0,0,0,9.548,4.077,11.346,11.346,0,0,0,8.513-3.284V324.4h5.217V297.352Zm-8,22.117a8.021,8.021,0,0,1-6.168-2.505,9.379,9.379,0,0,1,0-12.169,8.024,8.024,0,0,1,6.17-2.507,7.615,7.615,0,0,1,6.055,2.495,9.72,9.72,0,0,1,0,12.2A7.612,7.612,0,0,1,661.118,319.469Z" transform="translate(-469.607 -288.156)" fill="#302d2c"/>
    </g>
    <g id="グループ_51" data-name="グループ 51" transform="translate(143.152 234.765)">
      <path id="パス_162" data-name="パス 162" d="M221.711,304.721H201.725l-12.9,22.94h45.777l-12.9-22.94" transform="translate(-162.269 -264.932)" fill="#ffcb77"/>
      <path id="パス_163" data-name="パス 163" d="M222.665,274.148l-7.679,13.66h15.358l-7.679-13.66" transform="translate(-173.216 -251.655)" fill="#97321b"/>
      <path id="パス_164" data-name="パス 164" d="M284.605,325.039l-10.917-19.42a1.761,1.761,0,0,0-1.534-.9H245.378l12.9,22.94h24.8A1.76,1.76,0,0,0,284.605,325.039Z" transform="translate(-185.936 -264.932)" fill="#ffe5af"/>
      <path id="パス_165" data-name="パス 165" d="M262.756,269.687l-19.127-34.024a1.76,1.76,0,0,0-3.068,0l-12.369,22,7.679,13.661H261.8A1.1,1.1,0,0,0,262.756,269.687Z" transform="translate(-178.743 -234.765)" fill="#a9c300"/>
      <path id="パス_166" data-name="パス 166" d="M154.3,305.618l-10.917,19.42a1.76,1.76,0,0,0,1.535,2.622h24.8l12.9-22.94H155.832A1.76,1.76,0,0,0,154.3,305.618Z" transform="translate(-143.152 -264.932)" fill="#ffe5af"/>
      <path id="パス_167" data-name="パス 167" d="M190.844,235.663a1.76,1.76,0,0,0-3.068,0l-19.126,34.024a1.1,1.1,0,0,0,.959,1.639h25.925l7.679-13.661Z" transform="translate(-153.764 -234.765)" fill="#e12f1c"/>
    </g>
  </g>
</svg>
